<?xml version="1.0" encoding="utf-8"?>
<!-- Generator: Adobe Illustrator 16.0.0, SVG Export Plug-In . SVG Version: 6.00 Build 0)  -->
<!DOCTYPE svg PUBLIC "-//W3C//DTD SVG 1.1//EN" "http://www.w3.org/Graphics/SVG/1.1/DTD/svg11.dtd">
<svg version="1.1" id="Layer_1" xmlns="http://www.w3.org/2000/svg" xmlns:xlink="http://www.w3.org/1999/xlink" x="0px" y="0px"
	 width="595.281px" height="841.89px" viewBox="0 0 595.281 841.89" enable-background="new 0 0 595.281 841.89"
	 xml:space="preserve">
<path d="M87.37,71.174c0-1.482,0.255-2.883,0.766-4.204c0.508-1.322,1.253-2.48,2.231-3.482c0.978-1,2.177-1.794,3.599-2.381
	c1.42-0.587,3.034-0.881,4.84-0.881c1.756,0,3.311,0.231,4.665,0.692s2.495,1.116,3.422,1.96c0.929,0.847,1.63,1.875,2.106,3.083
	c0.477,1.21,0.715,2.563,0.715,4.059c0,0.518-0.008,0.951-0.025,1.301c-0.017,0.349-0.042,0.678-0.076,0.986H91.934 M105.174,69.497
	c0.05-0.937-0.059-1.793-0.326-2.569c-0.268-0.776-0.682-1.443-1.241-2.002c-0.56-0.56-1.258-0.997-2.095-1.312
	c-0.836-0.314-1.805-0.472-2.909-0.472c-0.953,0-1.822,0.154-2.607,0.461c-0.786,0.308-1.463,0.741-2.031,1.3
	c-0.569,0.56-1.028,1.231-1.38,2.014c-0.351,0.783-0.568,1.642-0.651,2.579L105.174,69.497L105.174,69.497z"/>
<path d="M99.51,88.994l-0.601-3.125c1.326,0,2.43-0.09,3.31-0.269c0.881-0.179,1.567-0.444,2.059-0.796
	c0.493-0.352,0.799-0.779,0.924-1.284c0.124-0.504,0.093-1.082-0.094-1.732c-0.203-0.703-0.604-1.304-1.201-1.801
	c-0.599-0.498-1.324-0.942-2.176-1.333c-0.854-0.392-1.8-0.75-2.842-1.075c-1.042-0.325-2.106-0.66-3.191-1.005
	c-1.086-0.345-2.161-0.72-3.226-1.125c-1.063-0.405-2.045-0.882-2.945-1.434c-0.898-0.55-1.682-1.197-2.351-1.94l3.956-1.194
	c0.6,0.504,1.327,0.956,2.183,1.354c0.853,0.398,1.802,0.76,2.844,1.085c1.041,0.325,2.104,0.66,3.191,1.005
	c1.085,0.345,2.162,0.724,3.228,1.135c1.067,0.412,2.051,0.899,2.954,1.463c0.902,0.564,1.69,1.224,2.362,1.98
	c0.673,0.756,1.158,1.652,1.457,2.687c0.356,1.234,0.375,2.316,0.057,3.245c-0.317,0.929-0.912,1.702-1.781,2.319
	c-0.871,0.617-1.998,1.079-3.381,1.383C102.86,88.841,101.282,88.994,99.51,88.994"/>
<path d="M99.689,88.994c-4.289,0-7.583-1.185-9.881-3.556c-2.299-2.37-3.449-5.876-3.449-10.517c0-2.249,0.317-4.282,0.952-6.102
	c0.634-1.819,1.54-3.362,2.717-4.63l2.889,2.077c-0.805,0.938-1.085,2.328-1.519,3.681s-0.65,2.896-0.65,4.63
	c0,3.638,0.797,6.381,2.392,8.229c1.594,1.848,3.932,2.771,7.013,2.771c1.3,0,2.546-0.14,3.739-0.419"/>
<path fill="#76160D" d="M170.854,38.988c0.017-0.35,0.025-0.783,0.025-1.301c0-1.496-0.238-2.849-0.715-4.059
	c-0.476-1.209-1.178-2.236-2.106-3.083c-0.928-0.844-2.068-1.499-3.422-1.96s-2.909-0.692-4.665-0.692
	c-1.806,0-3.419,0.294-4.84,0.881s-2.621,1.381-3.599,2.381c-0.919,0.939-1.625,2.027-2.129,3.251
	c-0.35,0.651-0.667,1.337-0.926,2.081c-0.635,1.819-0.952,3.853-0.952,6.102c0,4.641,1.149,8.146,3.449,10.517
	c2.266,2.336,5.502,3.516,9.701,3.549l0.001,0.006c0.038,0,0.073-0.002,0.11-0.002c0.023,0,0.045,0.002,0.069,0.002l0.004-0.004
	c1.696-0.011,3.216-0.16,4.551-0.454c1.384-0.305,2.51-0.766,3.381-1.383c0.869-0.617,1.464-1.39,1.781-2.319
	c0.318-0.929,0.3-2.01-0.057-3.245c-0.298-1.035-0.784-1.931-1.457-2.687c-0.672-0.756-1.46-1.417-2.362-1.98
	c-0.903-0.563-1.887-1.051-2.954-1.463c-1.066-0.411-2.143-0.79-3.228-1.135c-1.087-0.345-2.15-0.68-3.191-1.005
	c-0.975-0.304-1.86-0.644-2.67-1.012h16.124C170.813,39.666,170.838,39.337,170.854,38.988z M160.056,45.245
	c1.042,0.325,1.988,0.684,2.842,1.075c0.852,0.392,1.577,0.836,2.176,1.333c0.598,0.498,0.998,1.098,1.201,1.801
	c0.187,0.65,0.218,1.228,0.094,1.732c-0.125,0.504-0.432,0.932-0.924,1.284c-0.225,0.161-0.497,0.302-0.803,0.427
	c-1.067,0.219-2.169,0.347-3.321,0.347c-3.082,0-5.419-0.924-7.013-2.771c-1.579-1.829-2.373-4.538-2.389-8.121
	c0.55,0.276,1.118,0.535,1.72,0.764c1.065,0.405,2.14,0.78,3.226,1.125C157.95,44.585,159.014,44.92,160.056,45.245z
	 M166.341,37.163h-13.24c0.083-0.937,0.3-1.796,0.651-2.579c0.352-0.783,0.811-1.455,1.38-2.014c0.568-0.56,1.245-0.992,2.031-1.3
	c0.785-0.308,1.655-0.461,2.607-0.461c1.104,0,2.073,0.158,2.909,0.472c0.837,0.315,1.535,0.751,2.095,1.312
	c0.56,0.559,0.974,1.227,1.241,2.002C166.282,35.37,166.391,36.226,166.341,37.163z"/>
</svg>
